REM MD5 42c63a4674f569de7b1be95d7332cde2
FILE "Tekken 3 (USA).bin" BINARY
  TRACK 01 MODE2/2352
    INDEX 01 00:00:00
  TRACK 02 AUDIO
    INDEX 00 59:45:59
    INDEX 01 59:47:59
  TRACK 03 AUDIO
    INDEX 00 62:22:62
    INDEX 01 62:24:62
REM LEADOUT 65:01:60
